<svg xmlns="http://www.w3.org/2000/svg" width="1024" height="1024" viewBox="0 0 1024 1024"><rect width="1024" height="1024" fill="#9B4FCB"/><g transform="translate(512 512) scale(0.86) translate(-512 -560)"><g fill="#F5F0E8"><circle cx="236" cy="470" r="80"/><circle cx="196" cy="548" r="72"/><circle cx="252" cy="600" r="62"/><circle cx="178" cy="470" r="54"/><circle cx="788" cy="470" r="80"/><circle cx="828" cy="548" r="72"/><circle cx="772" cy="600" r="62"/><circle cx="846" cy="470" r="54"/></g><circle cx="512" cy="560" r="296" fill="#F4C9A6"/><path d="M356 388 A 230 230 0 0 1 486 318" fill="none" stroke="#FFE9D6" stroke-width="30" stroke-linecap="round"/><g fill="none" stroke="#3A2418" stroke-width="24" stroke-linecap="round"><circle cx="408" cy="590" r="82"/><circle cx="616" cy="590" r="82"/><path d="M490 582 Q 512 564 534 582"/><path d="M326 578 L 232 556"/><path d="M698 578 L 792 556"/></g></g></svg>
